<?xml version="1.0" standalone="no"?>
<!DOCTYPE svg PUBLIC "-//W3C//DTD SVG 20010904//EN"
 "http://www.w3.org/TR/2001/REC-SVG-20010904/DTD/svg10.dtd">
<svg version="1.0" xmlns="http://www.w3.org/2000/svg"
 width="225.000000pt" height="225.000000pt" viewBox="0 0 225.000000 225.000000"
 preserveAspectRatio="xMidYMid meet">

<g transform="translate(0.000000,225.000000) scale(0.100000,-0.100000)"
fill="#000000" stroke="none">
<path d="M900 2191 c-434 -96 -764 -435 -846 -868 -22 -120 -15 -345 15 -456
66 -247 202 -454 394 -601 457 -348 1098 -283 1478 151 338 387 356 959 43
1370 -147 192 -354 328 -601 394 -114 31 -365 36 -483 10z m250 -116 l0 -85
35 0 c31 0 35 -3 35 -26 0 -26 -1 -27 -46 -20 -26 3 -57 6 -70 6 -23 0 -24 2
-24 83 0 111 5 127 41 127 l29 0 0 -85z m-152 54 c2 -12 -7 -18 -32 -23 -27
-5 -36 -12 -36 -27 0 -17 5 -18 40 -13 36 6 40 4 40 -14 0 -16 -8 -23 -33 -27
-29 -6 -33 -10 -29 -30 3 -20 8 -22 43 -18 34 5 39 3 39 -15 0 -16 -11 -22
-65 -32 -36 -7 -67 -11 -69 -9 -2 2 -12 50 -23 106 l-20 101 46 10 c62 14 95
10 99 -9z m406 -10 c31 -24 34 -55 7 -62 -13 -3 -21 1 -24 14 -5 20 -37 27
-37 8 0 -6 14 -22 30 -36 51 -42 37 -108 -27 -127 -38 -12 -93 27 -93 64 0 18
36 15 52 -5 13 -15 19 -17 29 -8 9 9 4 19 -25 46 -42 40 -45 68 -11 102 30 30
64 32 99 4z m-598 -115 c25 -53 44 -97 42 -99 -6 -5 -47 -25 -51 -25 -2 0 -12
18 -22 39 -16 36 -19 39 -41 29 -20 -10 -21 -13 -9 -32 28 -46 28 -63 -4 -74
l-29 -10 -45 96 -46 97 22 12 c32 18 36 16 54 -22 18 -38 21 -39 42 -26 12 8
13 14 3 36 -17 37 -15 51 11 63 12 6 23 11 25 11 2 1 24 -42 48 -95z m844 1
c0 -23 -18 -27 -49 -10 -28 14 -31 14 -40 -4 -9 -16 -6 -21 19 -31 32 -13 34
-18 21 -38 -7 -12 -13 -11 -38 2 -29 14 -31 14 -41 -8 -9 -21 -7 -25 24 -40
29 -13 33 -19 25 -35 -10 -18 -13 -17 -71 13 -33 17 -60 34 -60 39 0 4 20 48
45 97 l45 90 60 -30 c33 -17 60 -37 60 -45z m-1100 -85 c0 -15 -7 -20 -28 -20
-40 0 -65 -30 -53 -62 9 -25 55 -68 72 -68 22 0 51 42 45 66 -6 21 -3 24 19
24 22 0 25 -4 25 -36 0 -48 -53 -104 -98 -104 -48 0 -80 17 -102 52 -48 79 -2
167 88 168 25 0 32 -4 32 -20z m1227 -114 l-41 -125 -28 20 c-23 17 -26 23
-18 45 13 33 13 32 -10 44 -14 8 -25 7 -40 -2 -16 -11 -23 -10 -37 4 -9 10
-15 19 -12 22 3 3 218 113 226 115 1 1 -17 -55 -40 -123z m-462 69 c271 -72
487 -290 555 -559 25 -99 27 -257 4 -359 -41 -183 -160 -358 -317 -466 -223
-153 -531 -175 -775 -55 -96 47 -207 137 -267 215 -57 76 -118 199 -142 289
-24 89 -24 290 1 379 83 304 329 525 641 575 56 9 240 -3 300 -19z m-1035
-420 c37 -19 50 -43 50 -92 -1 -112 -153 -141 -196 -36 -39 92 56 175 146 128z
m1806 -19 c26 -26 34 -42 34 -71 0 -52 -53 -105 -104 -105 -51 0 -95 42 -103
97 -5 39 -2 46 30 78 48 48 95 49 143 1z m-1799 -452 c3 -8 12 -14 19 -14 8 0
19 -12 24 -26 12 -32 13 -84 1 -84 -5 0 -8 -8 -7 -17 0 -9 -14 -27 -33 -40
-27 -18 -42 -22 -70 -17 -59 11 -88 38 -95 88 -9 56 7 89 53 114 37 20 99 18
108 -4z m1775 13 c7 -7 21 -16 31 -20 24 -9 52 -71 42 -94 -5 -10 -7 -23 -7
-29 4 -22 -55 -65 -93 -69 -44 -4 -105 28 -105 55 0 11 -5 22 -11 26 -18 11 0
77 30 106 15 14 40 28 56 31 17 2 33 5 37 6 4 0 13 -5 20 -12z m-246 -502 c37
-37 37 -51 -3 -87 -18 -17 -21 -16 -62 26 l-42 43 31 27 c17 14 34 26 36 26 3
0 20 -16 40 -35z m-1315 1 c17 -15 25 -27 19 -31 -6 -4 -18 -1 -26 6 -19 15
-31 4 -15 -15 16 -19 -4 -32 -24 -16 -10 8 -16 6 -28 -10 -13 -18 -16 -19 -27
-5 -11 14 -7 22 25 55 22 22 41 40 43 40 2 0 17 -11 33 -24z m1237 -138 c-2
-14 -14 -26 -31 -32 -26 -9 -31 -7 -62 29 -40 46 -41 51 -17 60 11 4 21 0 29
-12 34 -50 42 -58 52 -48 7 8 3 22 -15 47 -14 20 -23 42 -19 48 11 17 67 -65
63 -92z m-1144 61 c32 -25 33 -55 4 -86 -25 -27 -45 -29 -76 -7 -31 22 -29 67
4 93 15 12 30 21 34 21 4 0 19 -9 34 -21z m1002 -111 c6 -20 20 -23 29 -8 9
14 25 12 25 -2 0 -12 -59 -53 -65 -46 -1 2 -15 25 -30 51 -23 40 -26 51 -14
58 15 9 43 -19 55 -53z m-874 35 c22 -20 23 -61 1 -85 -23 -25 -68 -23 -87 4
-21 29 -20 40 5 72 23 30 54 33 81 9z m787 -22 c17 -11 -3 -25 -24 -17 -23 9
-40 -21 -27 -49 14 -30 42 -33 49 -5 3 11 12 20 20 20 10 0 13 -6 9 -16 -3 -9
-6 -19 -6 -23 0 -16 -50 -31 -74 -22 -41 16 -50 80 -14 105 25 18 46 20 67 7z
m-659 -38 c0 -7 -6 -13 -13 -13 -8 0 -19 -18 -26 -40 -11 -36 -28 -50 -44 -34
-3 4 1 25 10 47 12 29 13 42 5 45 -6 2 -9 9 -6 17 7 17 74 -2 74 -22z m107
-24 c15 -13 8 -76 -11 -95 -6 -7 -28 -9 -49 -7 -30 4 -37 9 -32 21 3 9 9 36
12 60 6 43 7 44 36 38 17 -3 36 -11 44 -17z m113 -55 c11 -36 20 -68 20 -70 0
-8 -36 11 -47 25 -11 14 -13 14 -26 -3 -30 -40 -33 -8 -5 52 17 34 31 62 33
62 3 0 13 -30 25 -66z m226 -28 c18 5 24 2 24 -10 0 -10 -9 -16 -24 -16 -13 0
-31 -3 -39 -6 -11 -4 -17 5 -22 38 -3 24 -9 51 -11 60 -3 10 2 18 13 20 14 3
20 -6 27 -44 8 -44 11 -47 32 -42z m-136 33 c0 -42 3 -49 20 -49 11 0 20 -4
20 -10 0 -5 -11 -10 -24 -10 -13 0 -31 -3 -40 -6 -14 -5 -16 4 -16 58 0 57 2
64 20 65 18 2 20 -4 20 -48z"/>
<path d="M1187 1702 c-10 -10 -17 -24 -17 -30 0 -7 -9 -12 -19 -12 -10 0 -29
-9 -42 -20 l-24 -21 25 3 c23 3 25 0 22 -32 -4 -43 -28 -63 -64 -56 -33 6 -38
-16 -12 -45 15 -17 15 -21 -3 -51 -27 -46 -78 -50 -152 -11 -78 41 -83 53 -38
102 50 55 52 107 6 145 -63 53 -153 22 -166 -56 -5 -33 -2 -41 29 -72 18 -18
32 -39 30 -45 -2 -6 2 -11 10 -11 7 0 2 -9 -11 -19 -17 -13 -22 -25 -18 -40 3
-11 1 -23 -4 -26 -10 -7 11 -57 28 -68 9 -6 13 -39 13 -113 0 -104 0 -106 -30
-136 -32 -32 -39 -51 -16 -42 11 4 13 0 9 -17 -5 -17 -3 -21 9 -16 21 7 28
-30 28 -138 0 -55 -4 -85 -12 -87 -7 -3 -8 -9 -3 -18 5 -8 9 -26 9 -40 1 -20
7 -26 29 -28 15 -2 27 0 28 5 7 59 7 98 0 102 -5 3 -10 45 -12 93 -2 48 0 80
4 72 7 -12 12 -10 28 11 15 18 30 25 54 25 19 0 36 -4 40 -9 9 -16 59 7 106
47 40 34 43 35 53 18 6 -11 20 -28 30 -39 15 -16 16 -19 4 -14 -21 7 -94 -39
-135 -86 -45 -51 -51 -82 -23 -112 18 -20 22 -32 17 -65 -3 -27 -2 -38 5 -33
7 3 8 1 4 -6 -4 -6 -10 -9 -14 -7 -8 4 -33 -20 -27 -25 2 -2 -21 -2 -51 -1
-31 2 -54 0 -54 -6 0 -5 -8 -9 -17 -8 -14 1 -19 -8 -21 -38 -2 -21 0 -46 3
-55 6 -15 7 -14 16 1 13 24 46 23 54 -2 8 -25 17 -25 33 0 7 11 21 20 33 20
11 0 18 -4 14 -9 -3 -5 0 -13 6 -17 6 -3 15 -1 18 5 4 7 23 20 41 29 24 12 37
29 49 62 12 32 25 50 48 61 l31 16 -29 17 c-36 21 -37 48 -3 75 37 29 66 26
92 -9 13 -17 39 -38 60 -48 35 -17 37 -20 36 -64 0 -30 4 -45 10 -41 6 4 7 2
3 -2 -8 -10 -26 -14 -74 -18 -46 -4 -67 -27 -58 -66 5 -22 10 -29 18 -23 26
20 57 20 67 1 10 -18 11 -18 32 3 18 18 23 19 32 6 10 -13 15 -13 41 2 29 16
30 20 35 96 4 57 12 90 28 117 12 21 22 40 22 43 0 2 -15 4 -34 4 -38 0 -80
29 -101 71 -9 16 -14 29 -12 29 1 0 20 -9 42 -20 56 -28 126 -27 161 4 45 38
34 95 -38 197 -16 23 -3 49 25 49 29 0 62 -33 54 -55 -10 -24 10 -18 32 11 37
47 23 95 -34 114 -30 10 -41 9 -75 -8 -38 -18 -39 -18 -29 0 5 10 38 41 73 68
70 55 76 64 76 116 0 66 -67 103 -133 73 -24 -11 -53 -56 -42 -67 3 -3 5 -1 5
5 0 12 60 36 68 28 3 -3 2 -5 -2 -5 -4 0 -2 -9 4 -20 14 -27 -1 -54 -57 -104
-55 -49 -77 -89 -69 -129 8 -38 34 -80 45 -72 5 2 15 -3 22 -13 13 -15 12 -16
-3 -3 -10 7 -18 9 -18 4 0 -12 39 -49 49 -46 3 1 8 -1 11 -4 3 -4 -1 -3 -8 1
-10 6 -11 -2 -6 -32 4 -29 2 -43 -11 -55 -22 -23 -77 -21 -107 3 -31 24 -43
53 -63 150 -9 41 -18 87 -21 101 -5 23 -2 27 25 32 35 7 55 39 46 74 -5 20 -9
23 -18 14 -28 -28 -67 4 -67 55 0 40 19 52 60 37 25 -9 26 -8 22 19 -2 15 -10
28 -18 28 -18 0 -25 15 -18 35 5 12 15 16 35 13 16 -3 29 -1 29 2 0 4 12 19
27 34 l27 27 -30 24 c-16 13 -54 30 -86 39 -35 10 -64 25 -76 41 -24 30 -33
31 -55 7z m0 -34 c-3 -8 -6 -5 -6 6 -1 11 2 17 5 13 3 -3 4 -12 1 -19z m-349
-41 c6 -5 12 -16 11 -25 0 -12 -3 -11 -9 6 -5 12 -11 22 -13 22 -2 0 -3 -10
-3 -22 1 -28 -38 -38 -48 -12 -13 33 26 53 62 31z m-121 -34 c-3 -10 -5 -4 -5
12 0 17 2 24 5 18 2 -7 2 -21 0 -30z m581 5 c9 -9 12 -9 12 0 0 7 5 12 11 12
8 0 8 -5 -1 -15 -7 -8 -18 -15 -25 -15 -7 0 -18 7 -25 15 -10 12 -10 15 2 15
8 0 19 -5 26 -12z m-505 -205 c-7 -2 -19 -2 -25 0 -7 3 -2 5 12 5 14 0 19 -2
13 -5z m225 -58 c-3 -3 -9 2 -12 12 -6 14 -5 15 5 6 7 -7 10 -15 7 -18z m522
22 c0 -2 -10 -12 -22 -23 l-23 -19 19 23 c18 21 26 27 26 19z m-656 -48 c32
-15 39 -34 20 -54 -14 -14 -13 -16 8 -24 23 -8 61 0 85 20 8 7 18 4 34 -12 12
-12 15 -19 8 -16 -15 5 -73 -25 -151 -79 -27 -18 -42 -34 -35 -37 6 -2 -4 -4
-23 -4 -19 0 -27 2 -17 4 15 4 17 18 17 109 0 112 2 116 54 93z m161 1 c-3 -5
-12 -10 -18 -10 -7 0 -6 4 3 10 19 12 23 12 15 0z m435 -3 c0 -2 -10 -12 -22
-23 l-23 -19 19 23 c18 21 26 27 26 19z m-63 -124 c-3 -10 -5 -2 -5 17 0 19 2
27 5 18 2 -10 2 -26 0 -35z m140 -9 c-3 -3 -12 -4 -19 -1 -8 3 -5 6 6 6 11 1
17 -2 13 -5z m-123 -30 c3 -8 2 -12 -4 -9 -6 3 -10 10 -10 16 0 14 7 11 14 -7z
m-248 -112 c-17 -16 -18 -16 -5 5 7 12 15 20 18 17 3 -2 -3 -12 -13 -22z m34
-6 c0 -2 -8 -10 -17 -17 -16 -13 -17 -12 -4 4 13 16 21 21 21 13z m297 -48
c-3 -7 -5 -2 -5 12 0 14 2 19 5 13 2 -7 2 -19 0 -25z m-17 -33 c-7 -8 -20 -15
-29 -15 -11 0 -8 5 9 14 33 19 35 19 20 1z m-143 -222 c-3 -10 -5 -2 -5 17 0
19 2 27 5 18 2 -10 2 -26 0 -35z"/>
<path d="M1457 1519 c-10 -6 -29 -8 -43 -5 -28 7 -33 -9 -6 -22 21 -12 57 1
65 22 7 19 8 19 -16 5z"/>
<path d="M155 1411 l-15 -29 43 -21 c77 -37 95 -21 22 19 -24 13 -42 26 -40
28 2 2 24 -7 49 -21 35 -19 46 -22 50 -11 3 8 -11 23 -38 39 -23 14 -46 25
-49 25 -4 0 -13 -13 -22 -29z"/>
<path d="M230 1430 c0 -6 11 -8 28 -4 39 10 40 14 4 14 -18 0 -32 -5 -32 -10z"/>
<path d="M260 1410 c0 -5 12 -10 28 -9 24 0 25 1 7 9 -27 12 -35 12 -35 0z"/>
<path d="M258 1335 c-20 -53 -8 -61 16 -11 18 37 20 56 8 56 -4 0 -15 -20 -24
-45z"/>
<path d="M300 1365 c0 -9 -7 -30 -16 -48 l-16 -32 20 20 c24 23 40 75 23 75
-6 0 -11 -7 -11 -15z"/>
<path d="M140 1354 c0 -30 88 -63 97 -36 3 6 -2 12 -9 12 -8 0 -30 9 -51 19
-29 15 -37 16 -37 5z"/>
<path d="M1990 1441 c-32 -6 -33 -7 -10 -12 14 -3 36 1 50 8 27 13 17 14 -40
4z"/>
<path d="M2034 1424 c-37 -19 -60 -42 -51 -50 7 -8 97 37 97 48 0 15 -18 16
-46 2z"/>
<path d="M1950 1410 c-12 -8 -11 -10 7 -10 12 0 25 5 28 10 8 13 -15 13 -35 0z"/>
<path d="M2038 1378 c-37 -21 -49 -38 -28 -38 19 0 90 40 90 50 0 16 -22 11
-62 -12z"/>
<path d="M1931 1359 c-1 -15 8 -37 19 -50 l20 -24 -14 35 c-7 19 -16 42 -19
50 -3 9 -6 4 -6 -11z"/>
<path d="M1961 1348 c9 -34 39 -72 39 -50 0 17 -32 82 -41 82 -4 0 -3 -14 2
-32z"/>
<path d="M2048 1342 c-35 -16 -52 -42 -27 -42 23 0 79 33 79 46 0 17 -5 17
-52 -4z"/>
<path d="M2018 1283 c7 -3 16 -2 19 1 4 3 -2 6 -13 5 -11 0 -14 -3 -6 -6z"/>
<path d="M200 971 c0 -25 20 -38 31 -20 7 11 9 10 9 -3 0 -25 17 -22 31 3 13
26 -1 39 -43 39 -21 0 -28 -5 -28 -19z"/>
<path d="M145 930 c-20 -39 -20 -40 16 -40 27 0 30 2 19 15 -10 12 -10 15 4
15 19 0 21 11 4 28 -18 18 -26 15 -43 -18z"/>
<path d="M279 934 c-11 -14 -11 -18 -1 -22 9 -3 10 -8 2 -17 -8 -10 -4 -14 16
-19 34 -9 37 -5 27 35 -10 39 -25 46 -44 23z"/>
<path d="M212 893 c2 -10 10 -18 18 -18 8 0 16 8 18 18 2 12 -3 17 -18 17 -15
0 -20 -5 -18 -17z"/>
<path d="M146 862 c-6 -10 2 -21 32 -47 20 -16 25 -17 32 -5 17 27 12 42 -12
34 -20 -6 -21 -5 -9 10 12 14 10 16 -12 16 -14 0 -28 -4 -31 -8z"/>
<path d="M263 849 c4 -16 3 -18 -8 -9 -16 13 -30 -3 -21 -25 7 -20 26 -18 56
5 24 20 25 21 6 35 -27 21 -39 19 -33 -6z"/>
<path d="M1984 975 c-9 -22 16 -51 28 -33 6 11 10 10 17 -1 7 -11 11 -10 20 7
18 34 13 42 -24 42 -23 0 -38 -6 -41 -15z"/>
<path d="M2060 940 c-9 -17 -8 -20 11 -20 18 0 19 -2 9 -15 -11 -13 -8 -15 14
-15 29 0 31 6 16 44 -11 31 -35 34 -50 6z"/>
<path d="M1934 915 c-8 -42 -3 -49 26 -40 17 5 19 10 9 21 -9 11 -8 14 5 14
19 0 21 11 4 28 -21 21 -37 13 -44 -23z"/>
<path d="M2007 903 c-3 -5 -2 -15 3 -22 10 -17 43 -6 38 12 -6 15 -34 22 -41
10z"/>
<path d="M1965 856 c-20 -16 -20 -16 4 -36 32 -28 51 -25 51 6 0 22 -3 24 -14
15 -12 -10 -15 -8 -18 9 -3 20 -4 20 -23 6z"/>
<path d="M2066 855 c5 -11 2 -13 -10 -9 -11 4 -16 0 -16 -14 0 -33 20 -37 47
-9 27 27 24 47 -7 47 -13 0 -17 -5 -14 -15z"/>
<path d="M1760 479 c0 -5 5 -7 10 -4 6 3 10 8 10 11 0 2 -4 4 -10 4 -5 0 -10
-5 -10 -11z"/>
<path d="M1790 450 c0 -5 5 -10 10 -10 6 0 10 5 10 10 0 6 -4 10 -10 10 -5 0
-10 -4 -10 -10z"/>
<path d="M547 392 c-21 -23 -22 -52 -2 -52 18 0 49 45 40 60 -9 15 -20 12 -38
-8z"/>
<path d="M676 321 c-17 -18 -22 -61 -8 -61 14 0 42 35 42 53 0 24 -16 29 -34
8z"/>
<path d="M915 240 c-3 -5 -1 -10 4 -10 6 0 11 5 11 10 0 6 -2 10 -4 10 -3 0
-8 -4 -11 -10z"/>
<path d="M906 195 c-3 -8 -1 -15 4 -15 13 0 22 18 11 24 -5 3 -11 -1 -15 -9z"/>
</g>
</svg>
