<?xml version="1.0" standalone="no"?>
<!DOCTYPE svg PUBLIC "-//W3C//DTD SVG 20010904//EN"
 "http://www.w3.org/TR/2001/REC-SVG-20010904/DTD/svg10.dtd">
<svg version="1.0" xmlns="http://www.w3.org/2000/svg"
 width="225.000000pt" height="225.000000pt" viewBox="0 0 225.000000 225.000000"
 preserveAspectRatio="xMidYMid meet">

<g transform="translate(0.000000,225.000000) scale(0.100000,-0.100000)"
fill="#000000" stroke="none">
<path d="M1050 1898 c-44 -121 -38 -112 -58 -96 -9 8 -48 36 -86 63 l-69 48 6
-41 c4 -23 10 -60 13 -83 l7 -41 -57 37 c-31 21 -57 36 -59 34 -1 -2 16 -41
39 -85 35 -71 42 -81 58 -72 52 29 186 69 258 77 77 9 194 2 259 -14 25 -6 27
-4 33 44 4 27 13 69 22 93 l15 43 -48 -47 c-27 -27 -52 -48 -56 -48 -4 0 -7
28 -7 63 0 34 -4 67 -8 73 -4 8 -31 -15 -72 -61 -35 -41 -68 -71 -72 -69 -4 3
-26 36 -49 74 -23 39 -42 70 -44 70 -1 0 -13 -28 -25 -62z"/>
<path d="M1100 1693 c-55 -8 -118 -25 -173 -45 l-58 -21 28 -17 c32 -19 58
-48 51 -56 -3 -2 -18 0 -33 6 -38 15 -82 3 -101 -25 -18 -28 -20 -97 -5 -138
10 -26 10 -27 -10 -16 -29 15 -51 75 -47 125 4 53 -5 49 -82 -33 -65 -68 -124
-158 -115 -173 3 -5 17 -10 31 -10 13 0 24 -3 24 -6 0 -3 -18 -36 -39 -72 -54
-91 -116 -282 -91 -282 5 0 19 4 32 9 13 4 34 11 48 14 l25 6 0 -142 c1 -108
5 -156 19 -202 32 -106 30 -105 93 -44 30 30 76 82 101 117 l47 64 13 -44 c13
-43 11 -250 -4 -326 -6 -31 -4 -33 42 -54 27 -11 81 -26 120 -31 95 -14 210 8
316 60 l77 39 11 -43 c5 -24 15 -43 20 -43 24 0 148 140 182 205 33 63 43 93
63 187 l5 28 29 -32 29 -32 11 39 c54 186 25 387 -80 561 -21 34 -35 49 -37
40 -5 -23 -15 -20 -39 13 -15 19 -18 32 -11 39 7 7 6 17 -1 31 -13 24 -23 26
-52 11 -14 -8 -26 -6 -46 7 l-28 18 18 -30 c10 -16 42 -51 70 -78 l52 -47 -55
6 c-31 3 -72 2 -92 -4 -35 -10 -37 -8 -87 42 -51 51 -62 81 -39 104 16 16 -5
16 -32 0 -16 -10 -27 -8 -65 10 -25 12 -55 22 -66 22 -26 0 -99 -37 -99 -51 0
-17 67 -39 123 -39 50 0 55 -2 105 -53 l52 -53 -102 3 c-57 2 -117 6 -135 9
-43 6 -89 47 -103 89 -9 28 -17 35 -37 35 -35 0 -25 19 29 56 41 28 45 33 31
47 -13 13 -7 18 55 50 39 19 89 38 112 42 36 6 48 2 110 -35 39 -22 75 -38 80
-35 6 3 10 17 10 31 0 13 6 24 13 24 15 0 117 -68 155 -103 27 -25 26 -27 2
52 -11 35 -28 70 -38 78 -19 16 -126 68 -159 78 -20 6 -22 3 -16 -32 l6 -38
-39 36 c-22 20 -49 42 -61 48 -21 10 -108 13 -163 4z m365 -516 c36 -20 40
-27 43 -68 3 -42 0 -47 -36 -77 -49 -39 -108 -70 -147 -77 -29 -6 -32 -3 -70
69 l-39 75 24 20 c36 30 140 81 164 81 12 0 39 -10 61 -23z m185 -57 c9 -50
-3 -151 -18 -149 -4 0 -22 20 -39 45 -27 36 -33 54 -33 93 0 44 3 51 32 70 39
24 43 19 58 -59z m-94 -158 c6 -4 18 -21 27 -38 19 -38 11 -77 -28 -136 -32
-48 -49 -45 -53 10 -2 23 -5 42 -7 42 -1 0 -23 -11 -46 -25 -24 -14 -50 -25
-56 -25 -16 0 -59 83 -46 87 6 2 43 24 84 48 72 43 102 52 125 37z"/>
</g>
</svg>
